<svg width="27" height="30" viewBox="0 0 27 30" fill="none" xmlns="http://www.w3.org/2000/svg">
<path d="M11.2274 0C9.16904 0 7.48493 1.68411 7.48493 3.74247H3.74247C1.68411 3.74247 0 5.42658 0 7.48493H26.1973C26.1973 5.42658 24.5132 3.74247 22.4548 3.74247H18.7123C18.7123 1.68411 17.0282 0 14.9699 0H11.2274ZM3.74247 11.2274V29.2287C3.74247 29.6403 4.04186 29.9397 4.45354 29.9397H21.7812C22.1928 29.9397 22.4922 29.6403 22.4922 29.2287V11.2274H18.7498V24.326C18.7498 25.3739 17.9264 26.1973 16.8785 26.1973C15.8306 26.1973 15.0073 25.3739 15.0073 24.326V11.2274H11.2648V24.326C11.2648 25.3739 10.4415 26.1973 9.39359 26.1973C8.3457 26.1973 7.52236 25.3739 7.52236 24.326V11.2274H3.77989H3.74247Z" fill="black"/>
</svg>
